<?xml version="1.0" encoding="UTF-8" standalone="no"?>
<svg
   xmlns:dc="http://purl.org/dc/elements/1.1/"
   xmlns:cc="http://creativecommons.org/ns#"
   xmlns:rdf="http://www.w3.org/1999/02/22-rdf-syntax-ns#"
   xmlns:svg="http://www.w3.org/2000/svg"
   xmlns="http://www.w3.org/2000/svg"
   xmlns:sodipodi="http://sodipodi.sourceforge.net/DTD/sodipodi-0.dtd"
   xmlns:inkscape="http://www.inkscape.org/namespaces/inkscape"
   id="SVGRoot"
   version="1.1"
   viewBox="0 0 40.0 40.0"
   height="40.0px"
   width="40.0px"
   inkscape:version="1.0 (4035a4f, 2020-05-01)"
   sodipodi:docname="drawing.svg">
  <defs
     id="defs6046" />
  <sodipodi:namedview
     id="base"
     pagecolor="#ffffff"
     bordercolor="#666666"
     borderopacity="1.0"
     inkscape:pageopacity="0.0"
     inkscape:pageshadow="2"
     inkscape:zoom="8.9588439"
     inkscape:cx="18.064125"
     inkscape:cy="15.084256"
     inkscape:document-units="px"
     inkscape:current-layer="layer2"
     inkscape:document-rotation="0"
     showgrid="true"
     inkscape:window-width="1252"
     inkscape:window-height="943"
     inkscape:window-x="428"
     inkscape:window-y="85"
     inkscape:window-maximized="0">
    <inkscape:grid
       id="grid6616"
       type="xygrid" />
  </sodipodi:namedview>
  <metadata
     id="metadata6049">
    <rdf:RDF>
      <cc:Work
         rdf:about="">
        <dc:format>image/svg+xml</dc:format>
        <dc:type
           rdf:resource="http://purl.org/dc/dcmitype/StillImage" />
        <dc:title />
      </cc:Work>
    </rdf:RDF>
  </metadata>
  <g
     inkscape:label="Layer 1"
     id="layer2"
     inkscape:groupmode="layer">
    <rect
       style="fill:#0080ce;fill-opacity:1"
       id="rect7272"
       width="40"
       height="40"
       x="0"
       y="0" />
  </g>
  <ellipse
     cy="7.444551"
     cx="28.1"
     id="circle3756"
     rx="4.5"
     ry="4.4444275"
     style="stroke-width:1.78885" />
  <g
     inkscape:label="Layer 2"
     id="layer3"
     inkscape:groupmode="layer">
    <path
       id="path2611"
       d="m 38,35 c -1.998,0 -3.114,-0.657775 -3.924,-1.137773 -0.666,-0.39111 -1.08,-0.639998 -2.07,-0.639998 -1.008,0 -1.404,0.23111 -2.07,0.639998 C 29.108,34.342225 28.01,35 26.012,35 c -1.998,0 -3.114,-0.657775 -3.924,-1.137773 -0.666,-0.39111 -1.08,-0.639998 -2.07,-0.639998 -1.008,0 -1.404,0.23111 -2.07,0.639998 C 17.12,34.342225 16.004,35 14.006,35 c -1.998,0 -3.114,-0.657775 -3.924,-1.137773 -0.666,-0.408888 -1.08,-0.639998 -2.07,-0.639998 -0.99,0 -1.404,0.23111 -2.07,0.639998 C 5.114,34.342225 3.998,35 2,35 v -3.555542 c 1.008,0 1.404,-0.23111 2.07,-0.639997 0.828,-0.479999 1.944,-1.137774 3.942,-1.137774 1.998,0 3.114,0.657775 3.924,1.137774 0.666,0.408887 1.062,0.639997 2.07,0.639997 1.008,0 1.404,-0.23111 2.07,-0.639997 0.828,-0.479999 1.944,-1.137774 3.942,-1.137774 1.998,0 3.114,0.657775 3.924,1.137774 0.666,0.391109 1.08,0.639997 2.07,0.639997 0.99,0 1.404,-0.23111 2.07,-0.639997 0.81,-0.479999 1.926,-1.137774 3.924,-1.137774 1.998,0 3.114,0.657775 3.924,1.137774 0.666,0.408887 1.062,0.639997 2.07,0.639997 z m 0,-7.999969 c -1.998,0 -3.114,-0.657775 -3.924,-1.137774 -0.666,-0.391109 -1.08,-0.639997 -2.07,-0.639997 -1.008,0 -1.404,0.23111 -2.07,0.639997 -0.81,0.479999 -1.926,1.137774 -3.924,1.137774 -1.998,0 -3.114,-0.657775 -3.924,-1.137774 -0.666,-0.391109 -1.08,-0.639997 -2.07,-0.639997 -1.008,0 -1.404,0.23111 -2.07,0.639997 -0.81,0.479999 -1.926,1.137774 -3.924,1.137774 -1.998,0 -3.114,-0.657775 -3.924,-1.137774 C 9.434,25.471148 9.02,25.22226 8.03,25.22226 c -0.99,0 -1.404,0.23111 -2.07,0.639997 C 5.114,26.342256 3.998,27.000031 2,27.000031 v -3.555542 c 1.008,0 1.404,-0.23111 2.07,-0.639997 0.81,-0.479999 1.926,-1.137774 3.924,-1.137774 1.998,0 3.114,0.657775 3.924,1.137774 0.666,0.391109 1.08,0.639997 2.07,0.639997 1.008,0 1.404,-0.23111 2.07,-0.639997 0.81,-0.479999 1.926,-1.137774 3.924,-1.137774 1.998,0 3.114,0.657775 3.924,1.137774 0.666,0.391109 1.08,0.639997 2.07,0.639997 0.99,0 1.404,-0.23111 2.07,-0.639997 0.81,-0.479999 1.926,-1.137774 3.924,-1.137774 1.998,0 3.114,0.657775 3.924,1.137774 0.666,0.391109 1.08,0.639997 2.07,0.639997 v 3.555542 z M 14.006,19.000062 c 1.008,0 1.404,-0.23111 2.07,-0.639998 0.828,-0.479998 1.944,-1.137773 3.942,-1.137773 1.998,0 3.114,0.657775 3.924,1.137773 0.666,0.39111 1.08,0.639998 2.07,0.639998 0.99,0 1.404,-0.23111 2.07,-0.639998 0.216,-0.124444 0.468,-0.266665 0.738,-0.408887 L 17.264,6.5556654 C 14.474,3.8001204 11.9,2.9823458 7.4,3.0001235 v 4.4444273 c 3.276,-0.017778 5.202,0.6933307 7.2,2.6666562 l 1.8,1.777771 -5.85,5.777756 c 0.558,0.213332 1.008,0.479998 1.386,0.69333 0.666,0.408888 1.062,0.639998 2.07,0.639998 z"
       style="stroke-width:1.78885" />
  </g>
</svg>
